<svg width="512" height="512" viewBox="0 0 512 512" fill="none" xmlns="http://www.w3.org/2000/svg">
<rect width="512" height="512" rx="96" fill="#6366F1"/>
<g stroke="white" stroke-width="24" stroke-linecap="round" stroke-linejoin="round">
<path d="M298.667 221.013C303.493 221.013 308.213 222.987 311.84 226.613C315.467 230.24 317.44 234.96 317.44 239.787C317.44 244.613 315.467 249.333 311.84 252.96L270.293 294.507C266.667 298.133 261.947 300.107 257.12 300.107C252.293 300.107 247.573 298.133 243.947 294.507C236.693 287.253 236.693 275.04 243.947 267.787L258.453 253.28"/>
<path d="M354.56 157.44L339.947 142.827C332.693 135.573 320.48 135.573 313.227 142.827L271.68 184.373C268.053 188 266.08 192.72 266.08 197.547C266.08 202.373 268.053 207.093 271.68 210.72C278.933 217.973 291.147 217.973 298.4 210.72L312.907 196.213"/>
<path d="M213.333 290.987C208.507 290.987 203.787 289.013 200.16 285.387C196.533 281.76 194.56 277.04 194.56 272.213C194.56 267.387 196.533 262.667 200.16 259.04L241.707 217.493C245.333 213.867 250.053 211.893 254.88 211.893C259.707 211.893 264.427 213.867 268.053 217.493C275.307 224.747 275.307 236.96 268.053 244.213L253.547 258.72"/>
<path d="M157.44 354.56L172.053 369.173C179.307 376.427 191.52 376.427 198.773 369.173L240.32 327.627C243.947 324 245.92 319.28 245.92 314.453C245.92 309.627 243.947 304.907 240.32 301.28C233.067 294.027 220.853 294.027 213.6 301.28L199.093 315.787"/>
</g>
</svg>
